#N canvas 2883 61 954 1016 12;
#X floatatom 529 232 0 0 0 0 - - -;
#X msg 541 161 seed 123;
#X obj 529 292 print;
#X obj 517 125 metro;
#X msg 548 83 tempo 1000 msec;
#X obj 532 38 tgl 15 0 empty empty empty 17 7 0 10 -262144 -1 -1 0
1;
#X obj 806 62 hsl 128 15 0 127 0 0 empty empty empty -2 -8 0 10 -262144
-1 -1 0 1;
#X obj 537 261 -, f 4;
#X obj 646 155 * 2;
#X obj 528 194 random;
#X floatatom 592 192 5 0 0 0 - - -;
#X obj 77 491 dac~;
#X obj 157 252 osc~;
#X obj 71 438 osc~;
#X obj 32 107 hsl 128 15 0 5000 0 0 empty empty empty -2 -8 0 10 -262144
-1 -1 5400 1;
#X obj 325 737 dac~;
#X obj 302 655 readsf~;
#X msg 320 561 0;
#X msg 356 602 1;
#X msg 271 498 open sounds/starwars1.wav;
#X obj 196 109 hsl 128 15 50 1000 0 0 empty empty empty -2 -8 0 10
-262144 -1 -1 2300 1;
#X floatatom 186 196 10 0 0 0 - - -;
#X floatatom 30 195 10 0 0 0 - - -;
#X obj 276 273 hsl 128 15 0 50 0 0 empty empty empty -2 -8 0 10 -262144
-1 -1 5500 1;
#X floatatom 269 325 10 0 0 0 - - -;
#X obj 117 334 *~;
#X obj 64 388 +~;
#X connect 0 0 7 0;
#X connect 1 0 9 0;
#X connect 3 0 9 0;
#X connect 4 0 3 0;
#X connect 5 0 3 0;
#X connect 5 0 4 0;
#X connect 5 0 6 0;
#X connect 6 0 8 0;
#X connect 6 0 7 1;
#X connect 7 0 2 0;
#X connect 8 0 10 0;
#X connect 9 0 0 0;
#X connect 10 0 9 1;
#X connect 12 0 25 0;
#X connect 13 0 11 0;
#X connect 13 0 11 1;
#X connect 14 0 22 0;
#X connect 16 0 15 0;
#X connect 16 0 15 1;
#X connect 16 1 19 0;
#X connect 16 1 18 0;
#X connect 17 0 16 0;
#X connect 18 0 16 0;
#X connect 19 0 16 0;
#X connect 20 0 21 0;
#X connect 21 0 12 0;
#X connect 22 0 26 0;
#X connect 23 0 24 0;
#X connect 24 0 25 1;
#X connect 25 0 26 1;
#X connect 26 0 13 0;
